<?xml version="1.0" standalone="no"?><!DOCTYPE svg PUBLIC "-//W3C//DTD SVG 1.1//EN" "http://www.w3.org/Graphics/SVG/1.1/DTD/svg11.dtd"><svg t="1524758795638" class="icon" style="" viewBox="0 0 1024 1024" version="1.1" xmlns="http://www.w3.org/2000/svg" p-id="2771" xmlns:xlink="http://www.w3.org/1999/xlink" width="200" height="200"><defs><style type="text/css"></style></defs><path d="M333.504 1022.496v-307.104h31.36c28.992 0 52.352-23.36 52.352-52.32v-217.856c0-28.96-23.36-52.32-52.352-52.32H198.112c-28.928 0-52.288 23.36-52.288 52.32v217.856c0 28.928 23.36 52.32 52.288 52.32h31.392v307.104H161.792v-245.504a120.416 120.416 0 0 1-83.072-113.92v-217.856a119.488 119.488 0 0 1 119.392-119.392h166.752c65.888 0 120.064 53.504 120.064 119.392v217.856a120.48 120.48 0 0 1-83.072 113.92v245.504h-68.352z m547.136-88a64.64 64.64 0 1 1 0-129.28 64.64 64.64 0 0 1 0 129.28z m-252.96-30.784v-5.568a30.432 30.432 0 0 1-12.352-15.328 50.976 50.976 0 0 1-3.616-14.176V547.392h-48.672a33.6 33.6 0 0 1-23.328-11.104 32.224 32.224 0 0 1-8.608-24 32.96 32.96 0 0 1 31.936-31.968h48.672V158.432c0-6.784 1.824-13.504 6.112-19.072 6.816-9.856 17.216-16 28.352-16h86.176c9.824 0 17.792 4.32 23.968 10.464 6.176 6.176 9.184 15.392 9.184 24.032a33.664 33.664 0 0 1-32.576 32.608H679.36v289.28h53.6c18.432 0 33.792 15.36 33.792 33.856 0 18.432-15.328 33.856-33.792 33.856H679.36v288.64h52.992c18.4 0 33.792 15.424 33.792 33.856 0 18.496-15.36 33.856-33.792 33.856h-104.672v-0.096z m252.96-325.536a64.64 64.64 0 1 1 0.064-129.344 64.64 64.64 0 0 1-0.064 129.344zM281.184 278.432A138.624 138.624 0 0 1 142.72 139.968 138.656 138.656 0 0 1 281.184 1.504a138.624 138.624 0 0 1 138.432 138.464c-0.576 76.928-62.08 138.464-138.432 138.464z m0-208.576c-38.752 0-70.784 32-70.784 70.752 0 38.784 32 70.784 70.784 70.784s70.784-32 70.784-70.784c0-38.784-32-70.752-70.784-70.752zM880.64 221.824a64.64 64.64 0 1 1 0-129.216 64.64 64.64 0 1 1 0 129.216z" p-id="2772" fill="#bfbfbf"></path></svg>