<?xml version="1.0" standalone="no"?><!DOCTYPE svg PUBLIC "-//W3C//DTD SVG 1.1//EN" "http://www.w3.org/Graphics/SVG/1.1/DTD/svg11.dtd"><svg t="1524759359275" class="icon" style="" viewBox="0 0 1024 1024" version="1.1" xmlns="http://www.w3.org/2000/svg" p-id="1695" xmlns:xlink="http://www.w3.org/1999/xlink" width="200" height="200"><defs><style type="text/css"></style></defs><path d="M940.421978 584.27407l-26.070772-26.119891c-10.232039-10.240225-24.041556-16.099676-37.801954-16.099676-12.172227 0-23.351847 4.496407-31.588439 12.677741L568.914756 830.884724c-0.290619 0.257873-0.197498 0.64059-0.413416 0.945535-0.367367 0.456395-0.74292 0.962931-0.905626 1.556449l-28.356838 103.969956c-1.647523 6.054903 0.039909 12.599969 4.519944 17.186428a17.785062 17.785062 0 0 0 12.472055 5.060249c1.560542 0 3.120061-0.180102 4.646834-0.596588l103.255689-28.14706c0.152473 0 0.230244 0.150426 0.352017 0.150426a4.494361 4.494361 0 0 0 3.244904-1.348717l276.071639-276.040941c8.212032-8.213056 12.70844-19.388583 12.70844-31.560809 0-13.779841-5.854335-27.570939-16.08842-37.785582zM581.299831 916.943752l14.389731-52.849672 38.395472 38.397519-52.785203 14.452153z m81.155344-35.970236l-44.85151-44.803415 199.201901-199.232601 44.466747 45.201482-198.817138 198.834534z m254.337639-254.375501l-27.415396 27.40414-44.464701-45.172829 27.037797-27.019377c4.26207-4.294816 12.567223-3.669576 17.460673 1.2382l26.071796 26.115798c2.738367 2.743484 4.297886 6.350638 4.297886 9.914814-0.001023 2.949168-1.072425 5.609765-2.988055 7.519254zM634.049219 575.146179c141.121088 0 256.091586-115.28977 256.091586-256.092609-3.876284-140.798746-119.16196-255.766175-259.966847-255.766175-141.126204 0-256.090563 115.288746-256.090563 256.088516 0 33.913391 5.812379 63.622016 17.761526 93.332689L80.208275 724.348316c-10.013051 10.003841-13.889335 17.757432-13.889335 31.642674v77.506235c0 27.779693 23.899316 51.668777 51.67287 51.668776h77.503164c13.889335 0 21.963221-5.810333 31.645745-13.883195l37.462216-37.785581h59.419298c27.774577 0 51.67287-23.898293 51.67287-51.668777v-51.668776h51.6698c27.773554 0 51.67287-23.898293 51.672869-51.667754v-59.421344l61.678758-61.679781c29.711695 11.94096 59.422368 17.755386 93.332689 17.755386zM518.758426 504.102123l-29.710672 29.708625-49.732682 49.729612c-10.013051 10.013051-15.823384 21.968337-15.823383 35.854602v59.096956h-51.670824c-27.76946 0-51.667753 23.898293-51.667753 51.667754v51.668776H260.731768c-13.889335 0-25.838482 5.812379-35.84744 15.824407l-35.527144 35.84437h-73.626881v-73.306586l299.686476-299.685454 37.783535-37.782511c-17.761526-29.713742-29.709649-65.563228-29.709649-103.346763 0-113.029286 91.3925-204.421786 204.420763-204.421786 113.031333 0 204.421786 91.3925 204.421786 204.421786 2.25946 114.970498-89.128947 206.361975-202.159256 206.361975-37.783535 0-73.308633-11.945053-103.340623-29.709649l-8.074909 8.073886z" p-id="1696" fill="#bfbfbf"></path><path d="M653.289422 425.049672c3.228531 0 5.812379-0.321318 8.719592-1.291412 36.81651-12.272511 63.299675-38.433334 78.79867-78.479399l0.647753-1.608637v-1.295506c0.322341-0.323365 0.322341-0.966001 0.644683-1.609661 0.64366-1.617847 0.963954-3.558036 1.287319-5.166673 3.232624-11.30651-3.227508-18.410302-6.132674-21.317514-33.259498-44.24162-67.494207-78.471213-104.956423-104.633059-5.811356-3.876284-13.883195-6.132674-21.313422-6.132674-3.228531 0-5.812379 0.321318-8.395204 1.287319-36.814464 12.275581-63.295582 38.432311-78.794577 78.472236l-0.6498 1.61887v1.293459c-0.321318 0.320295-0.321318 0.968048-0.647752 1.613754-0.64366 2.261507-1.287319 4.523013-1.28732 6.780427 0 8.072863 2.583848 13.240559 4.846379 17.761526l0.320294 0.642636 0.321319 0.648776c33.258475 44.564985 67.815525 79.121012 105.277741 105.282858 5.811356 3.871167 13.883195 6.132674 21.313422 6.132674z m-87.841628-133.699048c9.04705-22.602787 23.576975-37.783535 44.24776-46.50108 37.782511 28.095895 66.846454 57.156768 89.128947 88.808652-6.785543 21.636786-21.313422 36.817534-44.568055 46.178739-37.462217-28.093848-66.523089-57.159838-88.808652-88.486311z" p-id="1697" fill="#bfbfbf"></path></svg>